<mxfile host="app.diagrams.net" modified="2023-04-09T12:48:13.984Z" agent="Mozilla/5.0 (Windows NT 10.0; Win64; x64) AppleWebKit/537.36 (KHTML, like Gecko) Chrome/112.0.0.0 Safari/537.36 Edg/112.0.1722.34" etag="8y6f5BrsiGioJ3Og_E2Z" version="21.1.5" type="github">
  <diagram name="第 1 页" id="HHXmJBY0ZKrNh1pkVk6M">
    <mxGraphModel dx="522" dy="490" grid="1" gridSize="10" guides="1" tooltips="1" connect="1" arrows="1" fold="1" page="1" pageScale="1" pageWidth="827" pageHeight="1169" math="0" shadow="0">
      <root>
        <mxCell id="0" />
        <mxCell id="1" parent="0" />
        <mxCell id="bCVOg3vLBhjGLsg4i6ND-4" value="数据库系统" style="verticalAlign=top;align=left;shape=cube;size=10;direction=south;fontStyle=0;html=1;boundedLbl=1;spacingLeft=5;whiteSpace=wrap;" vertex="1" parent="1">
          <mxGeometry x="370" y="80" width="130" height="340" as="geometry" />
        </mxCell>
        <mxCell id="bCVOg3vLBhjGLsg4i6ND-6" value="用户系统" style="verticalAlign=top;align=center;shape=cube;size=10;direction=south;html=1;boundedLbl=1;spacingLeft=5;whiteSpace=wrap;" vertex="1" parent="1">
          <mxGeometry x="170" y="290" width="100" height="80" as="geometry" />
        </mxCell>
        <mxCell id="bCVOg3vLBhjGLsg4i6ND-14" style="edgeStyle=orthogonalEdgeStyle;rounded=0;orthogonalLoop=1;jettySize=auto;html=1;exitX=0;exitY=0;exitDx=35;exitDy=0;exitPerimeter=0;entryX=0.164;entryY=0.988;entryDx=0;entryDy=0;entryPerimeter=0;endArrow=None;" edge="1" parent="1" source="bCVOg3vLBhjGLsg4i6ND-7" target="bCVOg3vLBhjGLsg4i6ND-4">
          <mxGeometry relative="1" as="geometry" />
        </mxCell>
        <mxCell id="bCVOg3vLBhjGLsg4i6ND-7" value="管理员系统" style="verticalAlign=top;align=center;shape=cube;size=10;direction=south;html=1;boundedLbl=1;spacingLeft=5;whiteSpace=wrap;" vertex="1" parent="1">
          <mxGeometry x="170" y="100" width="100" height="80" as="geometry" />
        </mxCell>
        <mxCell id="bCVOg3vLBhjGLsg4i6ND-8" value="用户信息" style="html=1;dropTarget=0;whiteSpace=wrap;" vertex="1" parent="1">
          <mxGeometry x="396.25" y="130" width="77.5" height="70" as="geometry" />
        </mxCell>
        <mxCell id="bCVOg3vLBhjGLsg4i6ND-9" value="" style="shape=module;jettyWidth=8;jettyHeight=4;" vertex="1" parent="bCVOg3vLBhjGLsg4i6ND-8">
          <mxGeometry x="1" width="20" height="20" relative="1" as="geometry">
            <mxPoint x="-27" y="7" as="offset" />
          </mxGeometry>
        </mxCell>
        <mxCell id="bCVOg3vLBhjGLsg4i6ND-10" value="航班信息" style="html=1;dropTarget=0;whiteSpace=wrap;" vertex="1" parent="1">
          <mxGeometry x="396.25" y="230" width="77.5" height="70" as="geometry" />
        </mxCell>
        <mxCell id="bCVOg3vLBhjGLsg4i6ND-11" value="" style="shape=module;jettyWidth=8;jettyHeight=4;" vertex="1" parent="bCVOg3vLBhjGLsg4i6ND-10">
          <mxGeometry x="1" width="20" height="20" relative="1" as="geometry">
            <mxPoint x="-27" y="7" as="offset" />
          </mxGeometry>
        </mxCell>
        <mxCell id="bCVOg3vLBhjGLsg4i6ND-12" value="用户订票信息" style="html=1;dropTarget=0;whiteSpace=wrap;" vertex="1" parent="1">
          <mxGeometry x="396.25" y="330" width="77.5" height="70" as="geometry" />
        </mxCell>
        <mxCell id="bCVOg3vLBhjGLsg4i6ND-13" value="" style="shape=module;jettyWidth=8;jettyHeight=4;" vertex="1" parent="bCVOg3vLBhjGLsg4i6ND-12">
          <mxGeometry x="1" width="20" height="20" relative="1" as="geometry">
            <mxPoint x="-27" y="7" as="offset" />
          </mxGeometry>
        </mxCell>
        <mxCell id="bCVOg3vLBhjGLsg4i6ND-15" style="rounded=0;orthogonalLoop=1;jettySize=auto;html=1;exitX=0;exitY=0;exitDx=35;exitDy=0;exitPerimeter=0;entryX=0.164;entryY=0.988;entryDx=0;entryDy=0;entryPerimeter=0;endArrow=None;" edge="1" parent="1">
          <mxGeometry relative="1" as="geometry">
            <mxPoint x="270" y="329" as="sourcePoint" />
            <mxPoint x="372" y="330" as="targetPoint" />
          </mxGeometry>
        </mxCell>
      </root>
    </mxGraphModel>
  </diagram>
</mxfile>
